<svg xmlns="http://www.w3.org/2000/svg" viewBox="0 0 400 420" role="img" aria-label="I Pieroncini Hair and Beauty logo">
  <title>I Pieroncini Hair and Beauty</title>
  <!-- Circular barcode-style pattern -->
  <clipPath id="circle-clip">
    <circle cx="200" cy="190" r="175"/>
  </clipPath>

  <!-- Background circle outline -->
  <circle cx="200" cy="190" r="175" fill="none" stroke="#1a1a1a" stroke-width="1.5"/>

  <!-- Horizontal lines forming the face silhouette - clipped to circle -->
  <g clip-path="url(#circle-clip)" fill="#1a1a1a">
    <!-- Dense lines on the right side (woman's hair) -->
    <rect x="250" y="20"  width="130" height="3.5"/>
    <rect x="240" y="28"  width="140" height="3.5"/>
    <rect x="235" y="36"  width="145" height="3.5"/>
    <rect x="232" y="44"  width="148" height="3.5"/>
    <rect x="230" y="52"  width="150" height="3.5"/>
    <rect x="228" y="60"  width="152" height="3.5"/>
    <rect x="226" y="68"  width="154" height="3.5"/>
    <rect x="225" y="76"  width="155" height="3.5"/>
    <rect x="225" y="84"  width="155" height="3.5"/>
    <rect x="224" y="92"  width="156" height="3.5"/>
    <rect x="224" y="100" width="156" height="3.5"/>
    <rect x="224" y="108" width="156" height="3.5"/>
    <rect x="225" y="116" width="155" height="3.5"/>
    <rect x="226" y="124" width="154" height="3.5"/>
    <rect x="228" y="132" width="152" height="3.5"/>
    <rect x="230" y="140" width="150" height="3.5"/>
    <rect x="232" y="148" width="148" height="3.5"/>
    <rect x="235" y="156" width="145" height="3.5"/>
    <rect x="238" y="164" width="142" height="3.5"/>
    <rect x="242" y="172" width="138" height="3.5"/>
    <rect x="246" y="180" width="134" height="3.5"/>
    <rect x="250" y="188" width="130" height="3.5"/>
    <rect x="255" y="196" width="125" height="3.5"/>
    <rect x="260" y="204" width="120" height="3.5"/>
    <rect x="265" y="212" width="115" height="3.5"/>
    <rect x="270" y="220" width="110" height="3.5"/>
    <rect x="272" y="228" width="108" height="3.5"/>
    <rect x="270" y="236" width="110" height="3.5"/>
    <rect x="268" y="244" width="112" height="3.5"/>
    <rect x="265" y="252" width="115" height="3.5"/>
    <rect x="262" y="260" width="118" height="3.5"/>
    <rect x="258" y="268" width="122" height="3.5"/>
    <rect x="253" y="276" width="127" height="3.5"/>
    <rect x="247" y="284" width="133" height="3.5"/>
    <rect x="240" y="292" width="140" height="3.5"/>
    <rect x="232" y="300" width="148" height="3.5"/>
    <rect x="223" y="308" width="157" height="3.5"/>
    <rect x="212" y="316" width="168" height="3.5"/>
    <rect x="200" y="324" width="180" height="3.5"/>
    <rect x="186" y="332" width="194" height="3.5"/>
    <rect x="170" y="340" width="210" height="3.5"/>
    <rect x="150" y="348" width="230" height="3.5"/>
    <rect x="128" y="356" width="252" height="3.5"/>

    <!-- Left side scattered lines (face/hair texture) -->
    <rect x="25"  y="80"  width="80"  height="3.5"/>
    <rect x="30"  y="88"  width="70"  height="3.5"/>
    <rect x="28"  y="96"  width="75"  height="3.5"/>
    <rect x="32"  y="104" width="65"  height="3.5"/>
    <rect x="35"  y="112" width="55"  height="3.5"/>
    <rect x="38"  y="120" width="45"  height="3.5"/>
    <rect x="40"  y="128" width="40"  height="3.5"/>
    <rect x="42"  y="136" width="35"  height="3.5"/>

    <!-- Middle scattered segments (facial features) -->
    <rect x="90"  y="100" width="50"  height="3.5"/>
    <rect x="100" y="108" width="40"  height="3.5"/>
    <rect x="85"  y="116" width="55"  height="3.5"/>
    <rect x="95"  y="124" width="45"  height="3.5"/>
    <rect x="105" y="132" width="35"  height="3.5"/>
    <rect x="88"  y="140" width="52"  height="3.5"/>
    <rect x="96"  y="148" width="44"  height="3.5"/>
    <rect x="102" y="156" width="38"  height="3.5"/>
    <rect x="90"  y="164" width="50"  height="3.5"/>
    <rect x="98"  y="172" width="42"  height="3.5"/>
    <rect x="110" y="180" width="30"  height="3.5"/>
    <rect x="92"  y="188" width="48"  height="3.5"/>

    <!-- Gap area where "face" would be - sparse lines -->
    <rect x="140" y="100" width="25"  height="3.5"/>
    <rect x="150" y="108" width="15"  height="3.5"/>
    <rect x="138" y="116" width="22"  height="3.5"/>
    <rect x="155" y="124" width="12"  height="3.5"/>
    <rect x="145" y="132" width="18"  height="3.5"/>

    <!-- Lower left area lines -->
    <rect x="35"  y="200" width="80"  height="3.5"/>
    <rect x="40"  y="208" width="75"  height="3.5"/>
    <rect x="38"  y="216" width="78"  height="3.5"/>
    <rect x="42"  y="224" width="72"  height="3.5"/>
    <rect x="45"  y="232" width="65"  height="3.5"/>
    <rect x="50"  y="240" width="60"  height="3.5"/>
    <rect x="55"  y="248" width="55"  height="3.5"/>
    <rect x="60"  y="256" width="50"  height="3.5"/>
    <rect x="68"  y="264" width="42"  height="3.5"/>
    <rect x="78"  y="272" width="32"  height="3.5"/>
    <rect x="90"  y="280" width="25"  height="3.5"/>
    <rect x="105" y="288" width="20"  height="3.5"/>
    <rect x="118" y="296" width="18"  height="3.5"/>
    <rect x="130" y="304" width="16"  height="3.5"/>
    <rect x="142" y="312" width="14"  height="3.5"/>
    <rect x="153" y="320" width="12"  height="3.5"/>
    <rect x="162" y="328" width="10"  height="3.5"/>
  </g>

  <!-- Red accent marks (from original logo) -->
  <rect x="185" y="218" width="35" height="8" rx="2" fill="#c0392b"/>
  <rect x="185" y="230" width="35" height="8" rx="2" fill="#c0392b"/>

  <!-- Brand name text -->
  <text x="200" y="390" font-family="'Futura', 'Century Gothic', Arial, sans-serif" font-size="28" font-weight="700" letter-spacing="6" text-anchor="middle" fill="#1a1a1a">I PIERONCINI</text>
  <text x="200" y="413" font-family="Georgia, serif" font-size="16" font-style="italic" letter-spacing="2" text-anchor="middle" fill="#1a1a1a">hair and beauty</text>
  <!-- Red underline beneath "hair and beauty" -->
  <line x1="148" y1="418" x2="252" y2="418" stroke="#c0392b" stroke-width="1.5"/>
</svg>
